{
  "accessors": [
    {
      "bufferView": 2,
      "componentType": 5126,
      "count": 41700,
      "max": [
        25.783817291259766,
        15.621261596679688,
        27.63109588623047
      ],
      "min": [
        -26.750885009765625,
        -13.253239631652832,
        -25.835002899169922
      ],
      "type": "VEC3"
    },
    {
      "bufferView": 2,
      "byteOffset": 500400,
      "componentType": 5126,
      "count": 41700,
      "max": [
        0.9999865889549255,
        0.9999234676361084,
        0.9999843835830688
      ],
      "min": [
        -0.9999847412109375,
        -0.9999217987060547,
        -0.9999231696128845
      ],
      "type": "VEC3"
    },
    {
      "bufferView": 1,
      "componentType": 5126,
      "count": 41700,
      "max": [
        1.0,
        1.0
      ],
      "min": [
        0.0,
        0.0
      ],
      "type": "VEC2"
    },
    {
      "bufferView": 0,
      "componentType": 5125,
      "count": 199764,
      "type": "SCALAR"
    },
    {
      "bufferView": 2,
      "byteOffset": 1000800,
      "componentType": 5126,
      "count": 13666,
      "max": [
        25.334617614746094,
        15.303359985351563,
        21.903295516967773
      ],
      "min": [
        -25.55868148803711,
        -15.52553939819336,
        -26.59540367126465
      ],
      "type": "VEC3"
    },
    {
      "bufferView": 2,
      "byteOffset": 1164792,
      "componentType": 5126,
      "count": 13666,
      "max": [
        0.9999852776527405,
        0.9997378587722778,
        0.9995483160018921
      ],
      "min": [
        -0.9999228715896606,
        -0.9999219179153442,
        -0.9998616576194763
      ],
      "type": "VEC3"
    },
    {
      "bufferView": 1,
      "byteOffset": 333600,
      "componentType": 5126,
      "count": 13666,
      "max": [
        1.0,
        1.0
      ],
      "min": [
        0.0,
        0.0
      ],
      "type": "VEC2"
    },
    {
      "bufferView": 0,
      "byteOffset": 799056,
      "componentType": 5125,
      "count": 58674,
      "type": "SCALAR"
    },
    {
      "bufferView": 2,
      "byteOffset": 1328784,
      "componentType": 5126,
      "count": 51250,
      "max": [
        25.154617309570313,
        10.86676025390625,
        26.42479705810547
      ],
      "min": [
        -25.237781524658203,
        -15.423338890075684,
        -25.835002899169922
      ],
      "type": "VEC3"
    },
    {
      "bufferView": 2,
      "byteOffset": 1943784,
      "componentType": 5126,
      "count": 51250,
      "max": [
        0.9999852776527405,
        0.9999231100082397,
        0.9999844431877136
      ],
      "min": [
        -0.9999847412109375,
        -0.9999843835830688,
        -0.999984622001648
      ],
      "type": "VEC3"
    },
    {
      "bufferView": 1,
      "byteOffset": 442928,
      "componentType": 5126,
      "count": 51250,
      "max": [
        1.0,
        1.0
      ],
      "min": [
        0.0,
        0.0
      ],
      "type": "VEC2"
    },
    {
      "bufferView": 0,
      "byteOffset": 1033752,
      "componentType": 5125,
      "count": 249540,
      "type": "SCALAR"
    },
    {
      "bufferView": 2,
      "byteOffset": 2558784,
      "componentType": 5126,
      "count": 65532,
      "max": [
        24.250316619873047,
        15.359561920166016,
        17.57639503479004
      ],
      "min": [
        -25.235881805419922,
        -13.964738845825195,
        -26.395803451538086
      ],
      "type": "VEC3"
    },
    {
      "bufferView": 2,
      "byteOffset": 3345168,
      "componentType": 5126,
      "count": 65532,
      "max": [
        0.999984860420227,
        0.999984622001648,
        0.9999845027923584
      ],
      "min": [
        -0.9999847412109375,
        -0.9997977614402771,
        -0.9999216198921204
      ],
      "type": "VEC3"
    },
    {
      "bufferView": 1,
      "byteOffset": 852928,
      "componentType": 5126,
      "count": 65532,
      "max": [
        1.0,
        1.0
      ],
      "min": [
        0.0,
        0.0
      ],
      "type": "VEC2"
    },
    {
      "bufferView": 0,
      "byteOffset": 2031912,
      "componentType": 5125,
      "count": 318375,
      "type": "SCALAR"
    },
    {
      "bufferView": 2,
      "byteOffset": 4131552,
      "componentType": 5126,
      "count": 42277,
      "max": [
        17.244617462158203,
        10.86676025390625,
        18.274394989013672
      ],
      "min": [
        -18.265281677246094,
        -11.588539123535156,
        -24.561704635620117
      ],
      "type": "VEC3"
    },
    {
      "bufferView": 2,
      "byteOffset": 4638876,
      "componentType": 5126,
      "count": 42277,
      "max": [
        0.9999850988388062,
        0.9998619556427002,
        0.9999225735664368
      ],
      "min": [
        -0.9999847412109375,
        -0.9997353553771973,
        -0.9999847412109375
      ],
      "type": "VEC3"
    },
    {
      "bufferView": 1,
      "byteOffset": 1377184,
      "componentType": 5126,
      "count": 42277,
      "max": [
        1.0,
        1.0
      ],
      "min": [
        0.0,
        0.0
      ],
      "type": "VEC2"
    },
    {
      "bufferView": 0,
      "byteOffset": 3305412,
      "componentType": 5125,
      "count": 177963,
      "type": "SCALAR"
    },
    {
      "bufferView": 2,
      "byteOffset": 5146200,
      "componentType": 5126,
      "count": 24,
      "max": [
        1.0,
        1.0,
        1.0
      ],
      "min": [
        -1.0,
        -1.0,
        -1.0
      ],
      "type": "VEC3"
    },
    {
      "bufferView": 2,
      "byteOffset": 5146488,
      "componentType": 5126,
      "count": 24,
      "max": [
        1.0,
        1.0,
        1.0
      ],
      "min": [
        -1.0,
        -1.0,
        -1.0
      ],
      "type": "VEC3"
    },
    {
      "bufferView": 1,
      "byteOffset": 1715400,
      "componentType": 5126,
      "count": 24,
      "max": [
        0.875,
        1.0
      ],
      "min": [
        0.125,
        0.0
      ],
      "type": "VEC2"
    },
    {
      "bufferView": 0,
      "byteOffset": 4017264,
      "componentType": 5125,
      "count": 36,
      "type": "SCALAR"
    },
    {
      "bufferView": 2,
      "byteOffset": 5146776,
      "componentType": 5126,
      "count": 24,
      "max": [
        1.0,
        1.0,
        1.0
      ],
      "min": [
        -1.0,
        -1.0,
        -1.0
      ],
      "type": "VEC3"
    },
    {
      "bufferView": 2,
      "byteOffset": 5147064,
      "componentType": 5126,
      "count": 24,
      "max": [
        1.0,
        1.0,
        1.0
      ],
      "min": [
        -1.0,
        -1.0,
        -1.0
      ],
      "type": "VEC3"
    },
    {
      "bufferView": 1,
      "byteOffset": 1715592,
      "componentType": 5126,
      "count": 24,
      "max": [
        0.875,
        1.0
      ],
      "min": [
        0.125,
        0.0
      ],
      "type": "VEC2"
    },
    {
      "bufferView": 0,
      "byteOffset": 4017408,
      "componentType": 5125,
      "count": 36,
      "type": "SCALAR"
    },
    {
      "bufferView": 2,
      "byteOffset": 5147352,
      "componentType": 5126,
      "count": 24,
      "max": [
        1.0,
        1.0,
        1.0
      ],
      "min": [
        -1.0,
        -1.0,
        -1.0
      ],
      "type": "VEC3"
    },
    {
      "bufferView": 2,
      "byteOffset": 5147640,
      "componentType": 5126,
      "count": 24,
      "max": [
        1.0,
        1.0,
        1.0
      ],
      "min": [
        -1.0,
        -1.0,
        -1.0
      ],
      "type": "VEC3"
    },
    {
      "bufferView": 1,
      "byteOffset": 1715784,
      "componentType": 5126,
      "count": 24,
      "max": [
        0.875,
        1.0
      ],
      "min": [
        0.125,
        0.0
      ],
      "type": "VEC2"
    },
    {
      "bufferView": 0,
      "byteOffset": 4017552,
      "componentType": 5125,
      "count": 36,
      "type": "SCALAR"
    }
  ],
  "asset": {
    "extras": {
      "author": "ChrisRE (https://sketchfab.com/ChrisRE)",
      "license": "CC-BY-NC-4.0 (http://creativecommons.org/licenses/by-nc/4.0/)",
      "source": "https://sketchfab.com/3d-models/charite-university-hospital-operating-room-9ec46c4d615a4581a235eebfb162f574",
      "title": "Charité University Hospital - Operating Room"
    },
    "generator": "Sketchfab-14.85.0",
    "version": "2.0"
  },
  "bufferViews": [
    {
      "buffer": 0,
      "byteLength": 4017696,
      "name": "floatBufferViews",
      "target": 34963
    },
    {
      "buffer": 0,
      "byteLength": 1715976,
      "byteOffset": 4017696,
      "byteStride": 8,
      "name": "floatBufferViews",
      "target": 34962
    },
    {
      "buffer": 0,
      "byteLength": 5147928,
      "byteOffset": 5733672,
      "byteStride": 12,
      "name": "floatBufferViews",
      "target": 34962
    }
  ],
  "buffers": [
    {
      "byteLength": 10881600,
      "uri": "scene.bin"
    }
  ],
  "extensionsUsed": [
    "KHR_materials_unlit"
  ],
  "images": [
    {
      "uri": "textures/Mitte_OP_Tex3_baseColor.jpeg"
    },
    {
      "uri": "textures/Mitte_OP_Tex2_baseColor.jpeg"
    },
    {
      "uri": "textures/Mitte_OP_Tex1_baseColor.jpeg"
    },
    {
      "uri": "textures/Mitte_OP_Tex4_baseColor.jpeg"
    }
  ],
  "materials": [
    {
      "alphaMode": "BLEND",
      "doubleSided": true,
      "extensions": {
        "KHR_materials_unlit": {}
      },
      "name": "Window_Door__0",
      "pbrMetallicRoughness": {
        "baseColorFactor": [
          0.05282461988212015,
          0.16655516607723742,
          0.246673006263986,
          0.03934323034149924
        ],
        "metallicFactor": 0.0
      }
    },
    {
      "extensions": {
        "KHR_materials_unlit": {}
      },
      "name": "Mitte_OP_Tex3",
      "pbrMetallicRoughness": {
        "baseColorTexture": {
          "index": 0
        },
        "metallicFactor": 0.0
      }
    },
    {
      "extensions": {
        "KHR_materials_unlit": {}
      },
      "name": "Mitte_OP_Tex2",
      "pbrMetallicRoughness": {
        "baseColorTexture": {
          "index": 1
        },
        "metallicFactor": 0.0
      }
    },
    {
      "extensions": {
        "KHR_materials_unlit": {}
      },
      "name": "Mitte_OP_Tex1",
      "pbrMetallicRoughness": {
        "baseColorTexture": {
          "index": 2
        },
        "metallicFactor": 0.0
      }
    },
    {
      "extensions": {
        "KHR_materials_unlit": {}
      },
      "name": "Mitte_OP_Tex4",
      "pbrMetallicRoughness": {
        "baseColorTexture": {
          "index": 3
        },
        "metallicFactor": 0.0
      }
    }
  ],
  "meshes": [
    {
      "name": "OP_Mitte_Mitte_OP_Tex3_0",
      "primitives": [
        {
          "attributes": {
            "NORMAL": 1,
            "POSITION": 0,
            "TEXCOORD_0": 2
          },
          "indices": 3,
          "material": 1,
          "mode": 4
        }
      ]
    },
    {
      "name": "OP_Mitte_Mitte_OP_Tex2_0",
      "primitives": [
        {
          "attributes": {
            "NORMAL": 5,
            "POSITION": 4,
            "TEXCOORD_0": 6
          },
          "indices": 7,
          "material": 2,
          "mode": 4
        }
      ]
    },
    {
      "name": "OP_Mitte_Mitte_OP_Tex1_0",
      "primitives": [
        {
          "attributes": {
            "NORMAL": 9,
            "POSITION": 8,
            "TEXCOORD_0": 10
          },
          "indices": 11,
          "material": 3,
          "mode": 4
        }
      ]
    },
    {
      "name": "OP_Mitte_Mitte_OP_Tex4_0",
      "primitives": [
        {
          "attributes": {
            "NORMAL": 13,
            "POSITION": 12,
            "TEXCOORD_0": 14
          },
          "indices": 15,
          "material": 4,
          "mode": 4
        }
      ]
    },
    {
      "name": "OP_Mitte_Mitte_OP_Tex4_0",
      "primitives": [
        {
          "attributes": {
            "NORMAL": 17,
            "POSITION": 16,
            "TEXCOORD_0": 18
          },
          "indices": 19,
          "material": 4,
          "mode": 4
        }
      ]
    },
    {
      "name": "Window_Door__0",
      "primitives": [
        {
          "attributes": {
            "NORMAL": 21,
            "POSITION": 20,
            "TEXCOORD_0": 22
          },
          "indices": 23,
          "material": 0,
          "mode": 4
        }
      ]
    },
    {
      "name": "Window1__0",
      "primitives": [
        {
          "attributes": {
            "NORMAL": 25,
            "POSITION": 24,
            "TEXCOORD_0": 26
          },
          "indices": 27,
          "material": 0,
          "mode": 4
        }
      ]
    },
    {
      "name": "Window2__0",
      "primitives": [
        {
          "attributes": {
            "NORMAL": 29,
            "POSITION": 28,
            "TEXCOORD_0": 30
          },
          "indices": 31,
          "material": 0,
          "mode": 4
        }
      ]
    }
  ],
  "nodes": [
    {
      "children": [
        1
      ],
      "matrix": [
        0.49423202872276306,
        0.0,
        0.0,
        0.0,
        0.0,
        1.0974155555904265e-16,
        -0.49423202872276306,
        0.0,
        0.0,
        0.49423202872276306,
        1.0974155555904265e-16,
        0.0,
        0.0,
        0.0,
        0.0,
        1.0
      ],
      "name": "Sketchfab_model"
    },
    {
      "children": [
        2
      ],
      "matrix": [
        0.009999999776482582,
        0.0,
        0.0,
        0.0,
        0.0,
        0.0,
        0.009999999776482582,
        0.0,
        0.0,
        -0.009999999776482582,
        0.0,
        0.0,
        0.0,
        0.0,
        0.0,
        1.0
      ],
      "name": "OP_Mitte.fbx"
    },
    {
      "children": [
        3,
        9,
        11,
        13
      ],
      "name": "RootNode"
    },
    {
      "children": [
        4,
        5,
        6,
        7,
        8
      ],
      "matrix": [
        24.224843246730767,
        -0.12403723040318963,
        -23.721943882730827,
        0.0,
        -7.103835051931403,
        32.311266452134774,
        -7.423383659271183,
        0.0,
        22.633637232334255,
        10.274030959815995,
        23.059743940696066,
        0.0,
        1.1867642402648926,
        270.9931640625,
        7.918977737426758,
        1.0
      ],
      "name": "OP_Mitte"
    },
    {
      "mesh": 0,
      "name": "OP_Mitte_Mitte_OP_Tex3_0"
    },
    {
      "mesh": 1,
      "name": "OP_Mitte_Mitte_OP_Tex2_0"
    },
    {
      "mesh": 2,
      "name": "OP_Mitte_Mitte_OP_Tex1_0"
    },
    {
      "mesh": 3,
      "name": "OP_Mitte_Mitte_OP_Tex4_0"
    },
    {
      "mesh": 4,
      "name": "OP_Mitte_Mitte_OP_Tex4_0"
    },
    {
      "children": [
        10
      ],
      "matrix": [
        0.9565863609313965,
        0.0,
        0.0,
        0.0,
        -0.0,
        -1.71743991649593e-05,
        -105.41571044921736,
        0.0,
        0.0,
        75.39861297607322,
        -1.2283993251263768e-05,
        0.0,
        -613.70849609375,
        302.8083190917969,
        -19.805400848388672,
        1.0
      ],
      "name": "Window_Door"
    },
    {
      "mesh": 5,
      "name": "Window_Door__0"
    },
    {
      "children": [
        12
      ],
      "matrix": [
        0.913867175579071,
        0.0,
        0.0,
        0.0,
        0.0,
        -1.6407424510927208e-05,
        -100.70805358886585,
        0.0,
        0.0,
        95.37521362304561,
        -1.553859460060785e-05,
        0.0,
        573.5611572265625,
        328.37738037109375,
        65.91142272949219,
        1.0
      ],
      "name": "Window1"
    },
    {
      "mesh": 6,
      "name": "Window1__0"
    },
    {
      "children": [
        14
      ],
      "matrix": [
        0.913867175579071,
        0.0,
        0.0,
        0.0,
        0.0,
        -1.6407424510927208e-05,
        -100.70805358886585,
        0.0,
        0.0,
        95.37521362304561,
        -1.553859460060785e-05,
        0.0,
        573.5611572265625,
        325.81439208984375,
        -161.27757263183594,
        1.0
      ],
      "name": "Window2"
    },
    {
      "mesh": 7,
      "name": "Window2__0"
    }
  ],
  "samplers": [
    {
      "magFilter": 9729,
      "minFilter": 9987,
      "wrapS": 10497,
      "wrapT": 10497
    }
  ],
  "scene": 0,
  "scenes": [
    {
      "name": "Sketchfab_Scene",
      "nodes": [
        0
      ]
    }
  ],
  "textures": [
    {
      "sampler": 0,
      "source": 0
    },
    {
      "sampler": 0,
      "source": 1
    },
    {
      "sampler": 0,
      "source": 2
    },
    {
      "sampler": 0,
      "source": 3
    }
  ]
}
